<?xml version="1.0" encoding="UTF-8" standalone="no"?>
<!DOCTYPE svg PUBLIC "-//W3C//DTD SVG 20010904//EN"
              "http://www.w3.org/TR/2001/REC-SVG-20010904/DTD/svg10.dtd">

<svg xmlns="http://www.w3.org/2000/svg"
     width="0.51in" height="0.446667in"
     viewBox="0 0 153 134">
  <path id="Selection"
        fill="white" stroke="black" stroke-width="1"
        d="M 76.00,134.00
           C 76.00,134.00 104.00,111.42 104.00,111.42
             123.95,94.43 152.87,71.62 153.00,43.00
             153.00,43.00 153.00,39.00 153.00,39.00
             152.93,33.62 152.17,30.01 150.17,25.00
             138.09,-5.42 96.26,-8.89 77.00,18.00
             64.99,6.00 57.53,-0.08 40.00,0.00
             18.22,0.10 0.26,16.97 0.00,39.00
             -0.31,65.91 15.08,81.14 34.00,98.17
             34.00,98.17 76.00,134.00 76.00,134.00 Z
           M 76.00,32.00
           C 86.96,20.51 93.40,10.12 111.00,9.09
             116.64,8.76 123.09,10.41 128.00,13.17
             142.93,21.57 146.36,37.41 142.07,53.00
             139.58,62.08 133.42,69.99 127.42,77.00
             113.02,93.82 93.25,107.08 77.00,122.00
             69.52,116.99 60.99,109.33 54.00,103.42
             35.67,87.94 10.26,68.02 9.10,42.00
             8.10,19.41 28.88,4.72 50.00,10.49
             61.07,13.51 69.80,22.74 76.00,32.00 Z
           M 11.00,46.00
           C 11.00,46.00 20.00,46.00 20.00,46.00
             21.34,30.05 30.51,22.19 46.00,20.00
             46.00,20.00 46.00,12.00 46.00,12.00
             42.07,12.04 36.71,12.39 33.00,13.68
             19.45,18.41 11.13,32.05 11.00,46.00 Z" />
</svg>
