<?xml version="1.0" encoding="UTF-8" standalone="no"?>
<!DOCTYPE svg PUBLIC "-//W3C//DTD SVG 20010904//EN"
              "http://www.w3.org/TR/2001/REC-SVG-20010904/DTD/svg10.dtd">

<svg xmlns="http://www.w3.org/2000/svg"
     width="2.36333in" height="1.52333in"
     viewBox="0 0 709 457">
  <path id="gorilla"
        fill="#bde1e7" stroke="none" stroke-width="1"
        d="M 412.19,67.00
           C 411.70,61.21 408.79,50.54 406.68,45.00
             397.82,27.45 393.18,22.45 380.27,12.91
             380.27,12.91 364.00,4.94 364.00,4.94
             364.00,4.94 357.45,2.36 352.82,1.73
             350.27,0.82 341.00,0.11 341.00,0.11
             341.00,0.11 330.09,1.09 328.45,2.00
             328.45,2.00 319.00,4.64 318.00,5.23
             316.00,5.91 309.18,8.45 303.36,11.73
             297.36,16.09 286.82,25.55 283.20,32.00
             280.73,35.73 273.82,49.55 272.36,54.55
             271.55,57.18 271.00,62.18 271.00,62.18
             271.00,62.18 271.00,99.00 271.00,99.00
             271.00,99.00 271.00,182.00 271.00,182.00
             271.00,182.00 290.00,182.00 290.00,182.00
             298.10,182.04 302.45,183.09 306.55,184.18
             312.36,185.18 317.45,187.00 321.27,188.36
             333.82,192.37 347.00,201.27 347.00,201.27
             356.09,207.36 355.47,207.33 362.18,213.18
             362.18,213.18 368.00,217.58 368.00,217.58
             371.73,220.02 375.20,222.75 380.00,221.56
             385.55,220.17 387.43,214.30 391.32,210.30
             394.02,207.53 400.56,203.19 404.00,201.06
             405.82,199.94 409.90,197.96 411.01,196.37
             412.25,194.58 412.00,191.14 412.19,189.00
             412.18,189.18 412.00,67.00 412.19,67.00 Z
           M 357.00,99.00
           C 359.44,100.24 363.44,102.03 364.87,104.43
             365.67,105.77 366.49,107.74 366.45,109.27
             364.91,115.91 360.28,116.94 355.09,117.00
             365.09,119.64 372.55,121.17 375.00,137.00
             375.00,137.00 357.55,131.82 343.82,132.00
             331.00,131.91 310.00,137.00 310.00,137.00
             312.99,125.87 316.64,118.95 329.00,117.00
             326.52,115.94 322.22,114.73 320.60,112.70
             314.45,107.00 327.91,99.00 327.91,99.00
             318.00,94.09 311.94,107.28 304.19,102.82
             300.56,100.74 299.64,95.85 299.32,92.00
             298.70,84.26 300.98,72.31 310.00,70.45
             317.29,68.96 331.82,79.63 342.00,79.94
             348.47,80.14 357.16,76.28 363.00,73.54
             368.19,71.10 372.17,68.67 378.00,71.28
             386.50,75.08 388.19,85.72 386.52,94.00
             385.85,97.36 384.29,101.83 380.87,103.26
             372.23,106.88 368.57,95.70 357.00,99.00 Z
           M 201.27,82.73
           C 201.27,82.73 178.09,97.15 178.09,97.15
             167.23,105.61 158.67,116.41 151.37,128.00
             145.85,136.76 142.39,146.15 139.28,155.96
             137.67,161.07 137.00,165.75 135.88,170.62
             135.27,174.64 135.09,183.91 135.09,188.18
             139.00,190.27 147.91,194.00 151.00,196.43
             160.20,201.69 167.73,207.61 174.33,216.00
             178.40,221.16 181.67,227.03 186.18,231.55
             187.95,233.32 190.21,236.18 192.96,235.80
             196.47,235.31 199.12,229.78 200.72,227.00
             204.39,220.62 208.80,215.06 214.73,210.64
             214.73,210.64 231.00,199.26 231.00,199.26
             235.00,196.27 245.27,192.09 248.64,189.00
             249.00,187.00 249.00,182.88 249.00,181.00
             249.00,181.00 249.00,73.00 249.00,73.00
             231.04,72.95 233.59,72.74 216.00,77.23
             210.83,78.55 205.18,81.27 201.27,82.73 Z
           M 433.13,72.84
           C 433.13,72.84 433.00,133.00 433.00,133.00
             433.00,133.00 433.00,187.00 433.00,187.00
             433.00,187.00 441.00,183.79 441.00,183.79
             446.36,182.27 457.18,181.64 463.00,182.09
             467.82,182.18 480.64,183.27 488.09,184.45
             496.55,186.27 495.00,185.36 505.00,188.79
             512.18,191.45 523.91,198.55 527.00,201.53
             533.45,205.82 536.64,211.55 540.00,212.18
             542.18,212.36 545.60,200.68 545.89,197.00
             546.43,190.31 542.98,185.76 540.26,180.00
             539.19,177.73 535.75,166.42 535.33,164.00
             533.28,152.16 540.61,148.98 538.15,141.00
             536.46,135.53 529.58,124.92 526.19,120.00
             510.47,97.17 486.64,82.20 460.00,75.63
             455.40,74.49 450.74,73.10 446.00,72.84
             446.00,72.84 433.13,72.84 433.13,72.84 Z
           M 307.00,92.00
           C 307.00,92.00 308.91,88.27 310.18,88.45
             312.55,87.36 314.82,88.91 317.12,89.96
             329.53,92.89 337.52,91.94 352.00,92.00
             364.00,92.05 358.65,91.39 368.00,89.95
             369.76,89.68 373.33,87.56 374.91,88.09
             376.40,88.59 376.34,90.45 377.00,91.00
             378.86,85.92 376.56,81.74 371.00,81.15
             364.68,80.47 352.94,86.60 344.00,86.96
             332.89,87.41 321.22,79.74 314.00,81.30
             307.95,82.61 307.14,86.69 307.00,92.00 Z
           M 323.00,112.00
           C 324.73,110.36 338.00,114.00 338.00,114.00
             334.69,106.26 319.82,99.00 323.00,112.00 Z
           M 348.00,114.00
           C 348.00,114.00 360.18,110.55 362.00,112.00
             365.36,99.00 350.61,106.49 348.00,114.00 Z
           M 3.91,212.36
           C 1.91,219.18 1.00,223.36 0.82,226.45
             0.82,226.45 0.00,242.00 0.00,242.00
             0.00,242.00 17.18,217.04 17.18,217.04
             17.18,217.04 35.09,200.60 35.09,200.60
             47.15,191.89 72.00,182.02 87.00,182.00
             87.00,182.00 101.00,182.91 101.00,182.91
             106.84,183.31 107.09,183.18 114.00,184.00
             113.26,178.01 114.62,169.25 116.12,161.25
             117.25,152.62 122.00,139.58 125.00,131.00
             114.93,131.00 104.97,130.34 95.00,132.04
             66.30,136.94 40.78,152.70 22.95,175.61
             18.70,181.08 12.91,190.71 10.03,197.00
             7.83,201.79 5.27,207.82 3.91,212.36 Z
           M 373.09,145.00
           C 367.42,155.46 354.41,159.92 343.00,159.92
             332.73,160.18 316.36,156.18 313.00,145.00
             329.05,137.16 357.04,137.20 373.09,145.00 Z
           "/>
<path id="it"
        fill="#e6e26d" stroke="none" stroke-width="1"
        d="
           M 573.00,208.53
           C 569.90,209.53 567.72,210.28 565.73,213.11
             561.88,218.57 563.00,236.79 563.00,244.00
             563.00,244.00 563.00,352.00 563.00,352.00
             563.01,357.08 563.06,363.73 566.57,367.78
             571.41,373.38 581.81,373.18 585.99,366.89
             588.22,363.55 587.99,359.82 588.00,356.00
             588.00,356.00 588.00,242.00 588.00,242.00
             588.00,242.00 588.00,223.00 588.00,223.00
             587.98,212.69 584.38,206.91 573.00,208.53 Z
           M 574.00,143.48
           C 568.23,144.74 563.79,146.55 560.77,152.04
             559.47,154.38 559.16,156.38 559.04,159.00
             558.50,170.96 566.74,179.80 579.00,177.67
             600.14,173.99 596.55,141.38 574.00,143.48 Z
           M 635.00,214.00
           C 629.22,214.00 615.72,213.20 611.04,215.57
             603.82,219.22 603.08,229.51 610.10,233.70
             615.36,236.84 628.60,236.00 635.00,236.00
             635.00,236.00 635.00,318.00 635.00,318.00
             635.14,348.55 658.63,371.65 689.00,372.00
             694.41,372.06 700.38,372.05 704.78,368.35
             710.49,363.55 710.02,352.98 703.89,348.74
             700.62,346.47 695.82,347.04 692.00,347.00
             677.22,346.82 664.65,338.83 660.76,324.00
             658.30,314.65 659.00,300.89 659.00,291.00
             659.00,291.00 659.00,236.00 659.00,236.00
             659.00,236.00 685.00,236.00 685.00,236.00
             688.60,235.98 692.66,235.90 695.98,234.35
             703.30,230.95 703.92,221.26 697.89,216.51
             694.87,214.13 691.65,214.05 688.00,214.00
             688.00,214.00 659.00,214.00 659.00,214.00
             659.00,214.00 659.00,170.00 659.00,170.00
             658.95,166.34 658.79,163.21 656.35,160.21
             651.53,154.29 641.04,154.83 636.74,161.10
             634.73,164.03 635.01,167.62 635.00,171.00
             635.00,171.00 635.00,214.00 635.00,214.00 Z
           "/>
<path id="ape" fill-rule="evenodd"
        fill="white" stroke="none" stroke-width="1"
        d="
           M 149.00,346.00
           C 149.00,346.00 149.00,354.00 149.00,354.00
             149.01,363.05 151.50,370.75 162.00,371.80
             168.62,372.47 175.54,368.58 177.43,362.00
             178.09,359.72 178.00,356.41 178.00,354.00
             178.00,354.00 178.00,298.00 178.00,298.00
             178.17,282.93 178.66,274.70 173.31,260.00
             161.20,226.74 129.93,206.61 95.00,207.00
             83.78,207.13 71.15,209.89 61.00,214.64
             40.59,224.20 25.56,240.56 18.36,262.00
             4.23,304.01 24.31,358.49 70.00,370.10
             82.55,373.30 90.30,373.52 103.00,371.72
             115.05,370.01 125.32,365.43 135.00,358.10
             135.00,358.10 149.00,346.00 149.00,346.00 Z
           M 92.00,233.16
           C 92.00,233.16 98.00,233.16 98.00,233.16
             105.49,233.33 114.30,235.46 121.00,238.81
             162.77,259.69 159.64,332.07 111.00,344.84
             107.27,345.83 98.78,347.12 95.00,346.91
             82.66,346.21 70.33,342.11 61.00,333.82
             50.69,324.64 43.17,309.94 43.00,296.00
             42.80,278.36 43.76,265.07 56.18,251.00
             66.40,239.43 77.24,235.45 92.00,233.16 Z
           M 234.00,346.00
           C 234.00,346.00 247.00,357.48 247.00,357.48
             255.27,363.99 265.72,368.77 276.00,370.99
             327.08,381.98 368.42,342.50 369.00,292.00
             369.25,269.45 361.18,246.21 344.83,230.28
             311.43,197.73 254.86,199.29 224.30,235.00
             202.69,260.25 204.00,287.03 204.00,318.00
             204.00,318.00 204.00,420.00 204.00,420.00
             204.01,425.18 204.10,431.69 207.43,435.96
             213.23,443.39 225.70,443.90 231.30,435.96
             234.12,431.96 233.99,427.64 234.00,423.00
             234.00,423.00 234.00,346.00 234.00,346.00 Z
           M 282.00,233.29
           C 288.52,232.68 297.78,233.71 304.00,235.75
             353.36,251.92 352.14,330.44 302.00,344.57
             297.96,345.71 289.11,347.14 285.00,346.91
             271.19,346.12 257.80,341.04 248.09,330.96
             227.56,309.64 227.93,270.38 248.09,249.01
             257.80,238.73 268.51,235.35 282.00,233.29 Z
           M 459.00,207.63
           C 441.92,209.90 430.07,212.44 416.00,223.52
             379.90,251.95 375.74,311.96 406.17,346.00
             421.91,363.60 445.71,372.46 469.00,372.99
             485.33,373.36 506.33,367.16 520.00,358.30
             528.72,352.65 534.68,343.49 523.91,335.70
             515.20,329.40 507.67,335.82 500.00,339.88
             491.74,344.25 481.38,347.60 472.00,347.96
             453.67,348.67 435.92,339.92 424.32,326.00
             420.08,320.91 417.18,315.26 414.92,309.00
             414.38,306.93 413.18,303.51 414.92,301.60
             416.38,299.66 420.69,300.00 423.00,300.00
             423.00,300.00 524.00,300.00 524.00,300.00
             528.41,299.99 532.17,300.21 535.89,297.35
             540.50,293.81 541.17,288.41 540.96,283.00
             540.51,271.26 537.62,257.67 532.69,247.00
             521.77,223.33 502.38,210.88 477.00,207.63
             470.12,207.02 466.02,206.57 459.00,207.63 Z
           M 514.00,277.00
           C 514.00,277.00 447.00,277.00 447.00,277.00
             447.00,277.00 413.09,276.82 413.09,276.82
             417.85,260.51 421.45,248.88 437.00,239.62
             452.73,229.94 478.72,228.85 494.00,239.62
             505.97,248.35 512.82,262.54 514.00,277.00 Z
           "/>

<path id="web stuff"
        fill="#bde1e7" stroke="none" stroke-width="1"
        d="
           M 397.00,409.00
           C 397.00,409.00 397.00,388.00 397.00,388.00
             397.00,385.74 397.25,381.37 395.83,379.57
             394.90,378.40 393.44,378.07 392.01,378.20
             387.29,378.60 388.01,383.53 388.00,387.00
             388.00,387.00 388.00,429.00 388.00,429.00
             388.01,434.25 387.94,437.13 390.38,442.00
             397.87,456.99 418.43,461.72 432.00,452.20
             440.56,446.20 444.38,437.28 443.96,427.00
             443.16,407.27 424.46,393.94 406.00,402.35
             402.08,404.14 400.07,406.10 397.00,409.00 Z
           M 642.00,403.00
           C 639.76,403.02 636.33,402.85 634.43,404.17
             632.22,405.72 631.81,409.09 634.43,410.43
             635.91,411.18 640.21,411.00 642.00,411.00
             642.00,411.00 642.00,448.00 642.00,448.00
             642.05,451.24 641.81,455.49 646.09,455.81
             650.76,456.16 650.93,452.55 651.00,449.00
             651.00,449.00 651.00,411.00 651.00,411.00
             654.21,411.00 664.88,412.12 666.16,408.72
             668.84,401.54 654.46,403.00 651.00,403.00
             651.84,396.81 652.56,392.45 658.02,388.51
             662.05,385.59 669.36,386.21 668.18,381.13
             666.89,375.58 655.26,378.62 652.00,380.41
             643.50,385.10 642.03,394.21 642.00,403.00 Z
           M 679.00,403.00
           C 676.81,403.01 673.16,402.79 671.31,404.02
             669.00,405.57 668.58,409.05 671.31,410.40
             672.87,411.17 677.14,411.00 679.00,411.00
             679.00,411.00 679.00,449.00 679.00,449.00
             679.07,452.55 679.24,456.16 683.91,455.81
             688.19,455.49 687.95,451.24 688.00,448.00
             688.00,448.00 688.00,411.00 688.00,411.00
             691.14,411.00 701.05,412.06 702.34,408.69
             705.08,401.59 691.41,403.00 688.00,403.00
             688.26,397.38 689.20,392.25 694.09,388.70
             698.53,385.49 705.82,386.61 704.64,380.90
             703.41,375.40 691.21,378.55 688.00,380.90
             679.41,386.46 679.00,393.76 679.00,403.00 Z
           M 538.00,403.00
           C 535.92,403.02 532.26,402.84 530.57,404.17
             528.55,405.78 528.90,409.22 531.31,410.40
             532.80,411.13 536.28,410.99 538.00,411.00
             538.00,421.13 536.29,440.86 541.85,448.98
             545.73,454.65 550.46,456.03 557.00,455.99
             559.60,455.98 562.99,456.10 563.63,452.86
             564.83,446.80 558.36,447.59 555.00,446.26
             552.51,445.28 550.41,443.37 549.17,440.98
             547.90,438.51 548.01,435.71 548.00,433.00
             548.00,433.00 548.00,411.00 548.00,411.00
             551.04,411.00 560.05,412.00 561.34,408.70
             563.98,401.99 551.23,403.00 548.00,403.00
             548.00,399.14 548.85,388.23 546.26,385.60
             543.98,383.28 540.13,384.06 538.74,387.15
             537.62,389.63 538.00,399.72 538.00,403.00 Z
           M 334.00,432.00
           C 334.00,432.00 369.00,432.00 369.00,432.00
             370.82,431.99 373.92,432.15 375.40,430.98
             378.76,428.32 376.10,418.34 374.74,415.00
             370.90,405.51 363.12,400.45 353.00,400.04
             320.67,398.73 315.87,442.32 339.00,454.00
             346.64,457.86 356.07,457.77 364.00,454.91
             366.84,453.89 371.34,452.03 372.34,448.91
             373.33,445.87 371.06,443.44 367.98,443.64
             364.80,443.84 362.23,446.87 356.09,447.90
             345.13,449.75 336.58,442.28 334.00,432.00 Z
           M 497.00,400.47
           C 493.44,401.32 490.97,401.98 488.04,404.39
             483.62,408.03 482.73,411.49 483.04,417.00
             483.63,427.34 493.45,430.30 502.00,431.92
             506.14,432.70 513.20,434.59 514.83,439.04
             516.17,442.69 512.00,446.11 509.00,447.26
             504.92,448.83 497.80,447.97 494.00,445.93
             494.00,445.93 489.00,442.70 489.00,442.70
             487.15,441.70 485.24,440.97 483.23,442.07
             478.89,444.43 481.29,449.09 484.11,451.44
             488.37,455.01 496.52,456.86 502.00,456.99
             506.58,457.09 509.65,456.93 514.00,455.29
             524.38,451.37 529.74,438.61 520.89,430.21
             515.34,424.93 507.87,424.63 501.00,422.56
             497.72,421.57 491.94,419.45 492.82,415.00
             494.28,407.66 505.92,408.18 511.00,410.99
             513.37,412.30 515.22,414.12 518.00,414.67
             524.11,415.88 526.25,410.04 518.98,404.64
             512.67,399.94 504.52,399.42 497.00,400.47 Z
           M 286.00,418.00
           C 286.00,418.00 294.66,447.00 294.66,447.00
             295.62,450.07 296.35,454.93 300.10,455.63
             305.63,456.66 307.05,449.85 308.33,446.00
             308.33,446.00 317.00,420.00 317.00,420.00
             318.15,416.55 320.87,409.35 320.85,406.02
             320.82,400.19 315.79,400.59 313.72,402.60
             312.18,404.11 311.05,408.81 310.33,411.00
             310.33,411.00 307.00,421.00 307.00,421.00
             307.00,421.00 301.00,438.00 301.00,438.00
             301.00,438.00 293.15,412.00 293.15,412.00
             292.32,408.95 291.59,403.77 288.73,402.03
             283.81,399.03 281.26,404.22 280.03,408.00
             280.03,408.00 271.00,440.00 271.00,440.00
             271.00,440.00 265.33,423.00 265.33,423.00
             265.33,423.00 262.00,413.00 262.00,413.00
             261.10,410.29 259.52,404.39 257.49,402.60
             255.22,400.59 251.31,400.63 250.52,404.13
             249.89,406.91 252.38,413.15 253.33,416.00
             253.33,416.00 262.67,444.00 262.67,444.00
             263.82,447.45 265.18,454.71 269.13,455.67
             274.63,457.00 275.54,451.90 276.72,448.00
             276.72,448.00 286.00,418.00 286.00,418.00 Z
           M 615.00,451.00
           C 616.21,457.88 621.62,456.11 622.98,454.40
             624.23,452.82 624.00,448.98 624.00,447.00
             624.00,447.00 624.00,410.00 624.00,410.00
             623.99,406.96 624.67,402.29 620.86,401.33
             615.69,400.04 615.08,404.14 615.00,408.00
             614.84,416.64 616.98,435.43 611.58,441.90
             602.51,452.77 582.24,448.94 582.00,429.00
             582.00,429.00 582.00,411.00 582.00,411.00
             582.00,408.82 582.21,405.16 580.98,403.31
             579.31,400.82 575.05,400.37 573.60,403.31
             572.87,404.79 573.00,408.29 573.00,410.00
             572.98,417.71 572.06,436.72 574.61,443.00
             579.51,455.05 594.23,459.54 606.00,455.78
             609.58,454.63 611.90,453.01 615.00,451.00 Z
           M 368.00,425.00
           C 368.00,425.00 334.00,425.00 334.00,425.00
             336.27,403.60 365.68,403.12 368.00,425.00 Z
           M 411.00,409.39
           C 415.37,408.80 419.95,408.65 424.00,410.69
             441.01,419.23 437.12,449.16 414.00,447.96
             393.87,446.91 389.67,415.80 411.00,409.39 Z" />
</svg>
